<?xml version="1.0" encoding="utf-8"?>
<!-- Generator: Adobe Illustrator 23.0.3, SVG Export Plug-In . SVG Version: 6.00 Build 0)  -->
<svg version="1.1" id="Laag_1" xmlns="http://www.w3.org/2000/svg" xmlns:xlink="http://www.w3.org/1999/xlink" x="0px" y="0px"
	 width="32.4px" height="32.5px" viewBox="0 0 32.4 32.5" style="enable-background:new 0 0 32.4 32.5;" xml:space="preserve">
<style type="text/css">
	.st0{fill:#FFFFFF;}
</style>
<path id="Path_40" class="st0" d="M24.6,32.5c-2.9,0-5.7-0.9-8.1-2.4c-2.7-1.7-5.1-3.7-7.3-6c-2.3-2.2-4.4-4.7-6.3-7.3
	c-1.3-2-2.3-4.2-2.8-6.5C-0.2,8.2,0,6,0.7,4c0.7-1.7,2-3.1,3.6-3.8C5.1-0.2,6,0,6.5,0.6C8.4,2.4,10.2,4.1,12,6
	c0.8,0.6,0.9,1.7,0.3,2.5c-0.1,0.1-0.2,0.2-0.2,0.3c-0.8,1-1.6,1.9-2.5,2.8c-0.2,0.2-0.3,0.6-0.1,0.8c2.3,4.4,5.8,8,10.2,10.3
	c0.2,0.1,0.3,0.2,0.5,0.3c0.3,0.2,0.7,0.2,0.9-0.1c0,0,0,0,0,0c0.9-0.8,1.8-1.5,2.6-2.3c1.1-1,1.9-0.9,3,0.1
	c1.7,1.7,3.4,3.5,5.1,5.2c0.7,0.7,0.9,1.8,0.3,2.6C30.3,31.5,27.5,32.5,24.6,32.5z"/>
<path id="Path_40_1_" class="st0" d="M24.6,32.5c-2.9,0-5.7-0.9-8.1-2.4c-2.7-1.7-5.1-3.7-7.3-6c-2.3-2.2-4.4-4.7-6.3-7.3
	c-1.3-2-2.3-4.2-2.8-6.5C-0.2,8.2,0,6,0.7,4c0.7-1.7,2-3.1,3.6-3.8C5.1-0.2,6,0,6.5,0.6C8.4,2.4,10.2,4.1,12,6
	c0.8,0.6,0.9,1.7,0.3,2.5c-0.1,0.1-0.2,0.2-0.2,0.3c-0.8,1-1.6,1.9-2.5,2.8c-0.2,0.2-0.3,0.6-0.1,0.8c2.3,4.4,5.8,8,10.2,10.3
	c0.2,0.1,0.3,0.2,0.5,0.3c0.3,0.2,0.7,0.2,0.9-0.1c0,0,0,0,0,0c0.9-0.8,1.8-1.5,2.6-2.3c1.1-1,1.9-0.9,3,0.1
	c1.7,1.7,3.4,3.5,5.1,5.2c0.7,0.7,0.9,1.8,0.3,2.6C30.3,31.5,27.5,32.5,24.6,32.5z"/>
</svg>
