<?xml version="1.0" encoding="utf-8"?>
<!-- Generator: Adobe Illustrator 23.0.3, SVG Export Plug-In . SVG Version: 6.00 Build 0)  -->
<svg version="1.1" xmlns="http://www.w3.org/2000/svg" xmlns:xlink="http://www.w3.org/1999/xlink" x="0px" y="0px" width="569px"
	 height="528.78925px" viewBox="0 0 569 528.78925" style="enable-background:new 0 0 569 528.78925;" xml:space="preserve">
<style type="text/css">
	.st0{fill:#FFFFFF;}
	.st1{fill:none;stroke:#FF0000;stroke-width:6;stroke-linecap:round;stroke-linejoin:round;stroke-miterlimit:10;}
</style>
<g id="Laag_2">
</g>
<g id="Laag_1">
	<g>
		<path class="st0" d="M523.39648,293.71777c-0.43213-1.59961-2.07617-2.54492-3.67871-2.11426
			c-38.46143,10.38477-78.91211,26.54785-115.07861,43.12402c14.61475-18.22559,20.98828-28.92676,21.44678-29.70605
			c0.76514-1.30176,0.44385-2.96777-0.74902-3.89258c-1.19482-0.9248-2.88818-0.81836-3.95703,0.24902
			c-4.07568,4.06543-13.9707,11.72363-18.53809,9.43848c-5.67822-2.83887-3.53857-11.18262-3.44775-11.52734
			c0.37793-1.38477-0.28223-2.83984-1.56982-3.47559c-1.2876-0.63379-2.84863-0.26465-3.71826,0.87891
			C394.0542,296.75977,388.8418,303.5,381.5,303.5c-1.36133,0-1.92676-0.48145-2.26709-0.90137
			c-1.67627-2.06641-1.26172-7.27539-0.79932-9.46973c0.29004-1.35449-0.38477-2.73145-1.63281-3.33203
			c-1.24902-0.59961-2.74512-0.26855-3.62256,0.80371C369.91162,294.59277,363.62305,300.5,360.5,300.5
			c-0.18262,0-0.2085-0.02246-0.30176-0.13086c-1.09912-1.2793-1.26611-5.90137-0.73291-9.41309
			c0.20166-1.31055-0.48145-2.59863-1.68018-3.16699c-1.19727-0.56836-2.62744-0.28125-3.51514,0.7041
			c-8.64795,9.60938-14.54736,12.71777-21.04248,11.09668c-0.49707-0.125-0.56689-0.29102-0.64062-0.4668
			c-1.02783-2.44727,1.95264-9.76367,4.49951-14.10352c0.54443-0.92773,0.55127-2.07617,0.0166-3.00977S335.57568,280.5,334.5,280.5
			c-3.19629,0-11.88623,5.33301-23.8418,14.63184c-7.80957,6.0752-14.43945,4.5-18.04102,0.99805
			c-0.60156-0.58594-1.14795-1.25-1.62451-1.97852c6.35449-3.27441,12.16992-7.36035,15.81201-11.73047
			c5.01562-6.01855,4.38721-10.43555,3.56641-12.53223c-1.04443-2.66797-3.41211-4.42773-6.49658-4.83105
			c-5.53955-0.71387-11.82227,2.89062-16.79395,9.66797c-3.98584,5.43555-4.86035,11.31445-3.7417,16.40332
			c-6.77588,2.91113-13.63818,4.71094-18.10254,4.54883c-1.99951-0.0752-3.0249-0.54297-3.29492-0.92188
			c-2.11963-2.9668,4.51465-14.11035,11.79492-22.25586c0.54443-0.60938,0.81738-1.41504,0.75488-2.23047
			c-0.92676-12.0498-11.7627-17.50293-17.36279-18.70312c-0.8208-0.17773-1.68066,0.00098-2.36572,0.48828
			c-0.68555,0.48633-1.13525,1.23926-1.23975,2.07324c-2.30957,18.47852-16.40479,32.40234-43.09082,42.56836
			c-4.83105,1.8418-8.28369,2.06445-9.4751,0.6084c-0.74902-0.91602-1.00488-2.63379-0.74219-4.98145
			c11.87695-7.14062,23.42676-15.0127,31.68506-26.02344c3.78467-5.0459,4.94727-9.25098,3.45654-12.49902
			c-1.06934-2.32812-3.33594-3.72168-6.38281-3.9248c-6.62109-0.42871-16.99854,4.9209-24.01025,16.02246
			c-6.28369,9.94922-9.15137,17.3252-10.22754,22.70801c-1.81201,1.07227-3.64404,2.1416-5.48975,3.21973
			c-3.38379,1.97559-6.88281,4.01953-10.31055,6.11426c-2.39209,1.46191-5.43994,3.27832-9.01123,5.40625
			c-4.43896,2.64551-9.57959,5.70898-15.2124,9.12793c33.18896-47.80859,47.82129-79.79492,48.02246-80.24023
			c0.61816-1.36816,0.12842-2.9834-1.146-3.7793c-1.2749-0.79492-2.94043-0.52539-3.89844,0.63086
			c-24.46533,29.52734-41.32275,30.19141-44.52051,30.0293c-8.0166-6.68604-5.47882-26.35834-0.07782-46.03436
			c0.16388,0.23407,0.33002,0.47632,0.48895,0.69305C165.59814,230.16113,179.75684,236,189,236
			c3.1123,0,4.56348-3.3623,5.04004-4.46777c1.86865-4.33008,3.5498-13.0459,4.66211-24.44678
			c5.5459,6.47998,11.34912,12.33203,17.40869,17.24463c0.00488,0.00391,0.01025,0.00879,0.01514,0.0127
			c0.76758,1.10156,4.92676,6.78809,11.03223,9.84082c4.38037,2.18945,11.06543,3.21484,16.69043-0.47363
			c3.21893-2.11194,5.64954-5.45935,7.28595-10.01324c1.98633,3.59424,4.44928,6.44958,7.52362,7.98688
			c1.02686,0.5127,2.25439,0.39551,3.16406-0.30078c0.75342-0.57617,6.94287-5.82031,13.65527-26.95898
			C277.55811,216.90869,282.00879,235.5,291.5,235.5c6.06543,0,6.9209-5.74512,7.82666-11.82715
			c0.8252-5.54395,1.94385-13.05566,6.2832-21.71484c1.33496,1.16309,5.33447,6.4834,9.9458,30.11621
			c0.02441,0.12695,0.05762,0.25195,0.09814,0.37402c0.63721,1.91211,2.95166,5.58105,7.5835,7.20508
			c3.75049,1.3125,7.90967-0.56641,9.47168-4.2832c0.99414-2.36523,2.06055-5.0752,3.00391-7.84961
			c2.14746,6.29297,5.52197,13.29785,10.53369,16.79395c3.02734,2.1123,6.33789,2.82812,9.8418,2.12695
			c3.49121-0.69824,6.00684-4.04785,7.81689-8.6416c5.6626,9.86133,11.63232,15.48535,17.7627,16.72656
			c5.11963,1.04199,8.354-1.40234,8.70605-1.68359c0.50781-0.40625,0.86963-0.96582,1.03125-1.5957
			c0.17334-0.67383,2.16357-8.48047,4.23828-19.36719c5.97266,18.91699,14.52832,37.38281,26.50586,52.48438
			C422.72656,285.0918,423.59717,285.5,424.5,285.5c0.24219,0,0.48682-0.0293,0.72852-0.08984
			c1.14307-0.28613,2.01221-1.21484,2.22314-2.37305c0.0874-0.48047,2.08936-11.90137-2.10547-24.48535
			c-0.52393-1.57227-2.22119-2.42383-3.79492-1.89746c-1.57178,0.52344-2.42139,2.22266-1.89746,3.79395
			c1.64941,4.94824,2.20654,9.75098,2.31641,13.55859c-11.33398-16.57129-18.95752-36.43652-23.9585-56.06494
			C399.42383,208.39844,400.5,198.00635,400.5,188.5c0-28.83643-1.22412-49.15625-7.31689-61.3418
			c-1.13184-2.26416-2.76367-2.58154-3.6416-2.58057c-0.87256,0.00781-2.49805,0.35938-3.58105,2.62646
			c-3.68408,7.71289-4.84277,48.91553,5.88037,91.26807c-2.15967,14.09033-4.99658,26.18018-5.93262,30.01611
			c-0.68066,0.24121-1.78809,0.45215-3.24561,0.11523c-2.60889-0.60254-7.96436-3.4209-14.5249-15.53223
			c-0.69482-1.2832-1.31055-2.51172-1.85352-3.68359C368.24756,219.69434,368.5,208.5415,368.5,203.5
			c0-1.05566-0.55518-2.03418-1.46143-2.57568c-0.90674-0.54053-2.03076-0.56592-2.96094-0.06592
			c-0.47168,0.25391-4.66016,2.65967-6.51123,8.85742c-1.68408,5.63965-0.87061,12.43066,2.41455,20.24609
			c-1.30469,6.01367-3.04883,10.19238-5.06934,10.59668c-1.86328,0.37207-3.57227-0.00879-5.22852-1.16211
			c-6.66455-4.64551-10.3584-19.88232-11.21924-25.36084c-0.24316-1.54736-1.6416-2.65137-3.19727-2.52588
			c-1.56152,0.12207-2.7666,1.42383-2.7666,2.99023c0,3.74072-1.93994,10.5-5.32227,18.54492
			c-0.33008,0.78418-1.2085,1.20898-1.95508,0.94629c-2.60205-0.91211-3.61182-2.8457-3.82959-3.3291
			c-5.77002-29.43115-11.23242-33.98779-14.84277-34.84912c-2.32031-0.55225-4.39355,0.52832-5.41846,1.84521
			c-0.1084,0.13965-0.2041,0.28809-0.28662,0.44434c-5.26758,10.00879-6.58301,18.84131-7.45312,24.68652
			c-0.3877,2.60156-0.91797,6.16406-1.57959,6.67578c-0.02197,0.00977-0.12158,0.03516-0.3125,0.03516
			c-2.69141,0-7.91064-9.02832-11.25977-33.90039c-0.271-2.01465-1.87744-3.51514-3.90576-3.64893
			c-2.0332-0.12842-3.82471,1.14502-4.35938,3.10986c-5.0957,18.72949-10.1123,26.93604-12.44385,29.99805
			c-2.59711-2.34137-4.64502-6.64215-6.21826-11.8634c0.37036-3.82831,0.43958-8.10468,0.18262-12.8573
			c-0.93408-17.27979-4.80322-28.35254-11.50049-32.91016c-4.71826-3.20996-8.97412-1.9292-9.44385-1.77393
			c-0.23975,0.08008-0.46875,0.18994-0.68115,0.32764c-18.74365,12.12842-22.23779,27.15479-21.86816,37.62451
			c0.10205,2.89941,0.49756,5.604,1.03125,8.02686c-3.99609-4.01025-7.88037-8.42236-11.63916-13.11377
			c0.83789-12.84961,0.98779-28.07812,0.04395-43.86621c-3.43262-57.41553-18.5498-81.47754-27.25537-90.71094
			c-33.18164-35.19287-49.07031-33.22363-50.771-32.88379c-1.27002,0.25439-2.23389,1.29492-2.38965,2.58105
			c-0.16846,1.38916-3.91357,34.37256,14.40576,64.9043c4.40967,7.34961,9.29297,16.68408,14.94775,27.49219
			c0.55322,1.05762,1.11279,2.12695,1.67969,3.20898c-4.13623,12.22363-8.64453,25.42139-13.06201,38.11963
			c-7.2041-16.50439-13.08936-31.18311-13.20752-31.47852c-0.47656-1.19141-1.65137-1.94727-2.93896-1.88184
			c-1.28125,0.06543-2.37891,0.93848-2.73145,2.17188c-0.73828,2.58447-18.10742,63.60645-20.10693,90.60254
			c-1.0083,13.6084,0.25098,19.43457,4.49121,20.78027c0.50684,0.16016,1.01709,0.24316,1.53516,0.24316
			c3.84473,0,8.10791-4.54199,14.5376-15.25781c3.20117-5.33496,10.67432-25.21582,19.08691-48.9585
			c2.92987,6.3808,5.88892,12.55017,8.64056,17.83362c-4.3894,8.63123-8.80054,17.2265-11.95111,23.17761
			c-8.5415,16.13379-44.30225,69.08594-60.59082,87.41016c-1.10059,1.23828-0.98926,3.13477,0.24902,4.23535
			c1.23828,1.09961,3.13379,0.98926,4.23535-0.24902c16.50977-18.57324,52.75293-72.23828,61.40918-88.58984
			c1.97168-3.72363,4.43262-8.47461,7.07275-13.62158c-7.07178,26.89502-5.8877,43.93115,3.53223,50.65967
			c0.33691,0.24023,0.72021,0.40918,1.12549,0.49414c0.70264,0.14941,14.69189,2.76172,36.3833-16.71094
			c-8.74414,15.94922-23.76709,41.28809-46.06348,72.26465c-23.10107,14.46191-50.79736,33.15332-72.229,52.79883
			c-19.04004,17.4541-28.47559,35.90039-33.03809,48.30078c-4.98047,13.53711-5.41602,22.89648-5.43213,23.28809
			C31.00098,444.91797,31,444.95898,31,445c0,1.24512,0.74023,2.77051,2.39453,3.37402
			c2.70117,0.98242,9.0166,3.28906,71.90088-71.44238c15.52637-18.45215,29.01123-35.94922,40.57861-51.97461
			c10.33838-6.4541,19.71729-12.04395,27.12207-16.45605c3.59375-2.1416,6.66064-3.96973,9.06836-5.44141
			c3.37646-2.06348,6.84912-4.09082,10.20752-6.05273c0.68164-0.39746,1.36523-0.79688,2.04834-1.19629
			c0.3501,2.86914,1.354,4.5127,1.99316,5.29297c3.05957,3.74023,8.52881,4.14355,16.25439,1.2002
			c27.27197-10.38965,42.46924-24.75879,46.3252-43.84668c3.36133,1.44531,8.43457,4.65039,9.47217,11.06348
			c-5.07471,5.84961-16.87842,20.92188-11.30664,28.72363c1.52588,2.13574,4.20215,3.28906,7.9541,3.42871
			c5.22705,0.20898,12.92725-1.7334,20.51562-4.95898c0.81787,1.3877,1.7998,2.6416,2.90674,3.71777
			c6.79883,6.6084,16.96777,6.38867,25.90674-0.56348c6.17627-4.80371,10.62012-7.89062,13.75684-9.87207
			c-1.42188,3.86426-2.37207,8.2832-1.04541,11.44629c0.85449,2.03809,2.48633,3.41016,4.71924,3.96777
			c8.45459,2.11426,15.39844-1.71582,21.56055-7.37695c0.27393,2.31348,0.93018,4.63184,2.31104,6.24121
			c1.24854,1.45605,2.92822,2.22559,4.85596,2.22559c3.90967,0,8.29102-3.08789,11.70508-6.1875
			c0.29395,2.15625,0.97559,4.34375,2.35889,6.05469c1.65674,2.0498,4.05518,3.13281,6.93604,3.13281
			c4.70947,0,8.66895-1.81641,11.61621-3.83594c0.54248,4.0293,2.43604,8.21582,7.04199,10.51953
			c3.52393,1.76172,7.65332,1.04297,11.55713-0.6582c-4.64209,6.39062-11.15088,14.88086-19.77148,25.11719
			c-53.3667,25.2666-95.09473,50.01953-103.10791,55.36133c-4.36914,2.91309-42.87012,29.08105-49.21387,50.64941
			c-2.93848,9.99023-2.36914,17.16797,1.69189,21.33398c2.3457,2.40625,5.63574,3.6123,9.82764,3.6123
			c2.41406,0,5.12744-0.39941,8.13135-1.20117c15.2207-4.05859,37.68506-24.16406,93.32812-78.75684
			c18.06592-17.72559,32.28711-33.31641,43.20801-46.20801c38.62354-18.22461,83.25537-36.63867,125.47314-48.03711
			C522.88184,296.96484,523.82812,295.31738,523.39648,293.71777z M210.03662,269.10156
			c5.85693-9.27344,13.94678-13.25098,18.13672-13.25098c0.13818,0,0.27246,0.00391,0.40186,0.0127
			c0.76221,0.05078,1.24512,0.26074,1.32812,0.44141c0.21045,0.45898,0.11719,2.50098-2.80322,6.39551
			c-6.48047,8.63965-15.09814,15.16992-24.64404,21.20605C204.09131,279.59473,206.60059,274.54199,210.03662,269.10156z
			 M390.10303,135.646C393.70264,147.26025,394.5,164.88672,394.5,188.5c0,3.60205-0.16504,7.35791-0.45117,11.16211
			C389.02002,171.86816,388.81201,146.91504,390.10303,135.646z M240.55762,228.69238
			c-1.57196,1.03143-3.24426,1.40063-4.79388,1.43848c3.47327-6.11151,6.92053-14.99963,9.44037-25.00098
			c0.53436,2.95697,1.20245,5.92896,2.02643,8.77765C246.15588,222.92822,243.22797,226.9408,240.55762,228.69238z
			 M234.68408,171.30957c0.65186-0.08838,2.2627-0.12549,4.10059,1.19385c1.26215,0.90643,2.94269,2.6991,4.50568,6.20911
			c-0.16663,0.35065-0.26862,0.73895-0.28741,1.15125c-0.94574,20.81403-8.10803,40.34174-13.37701,48.83575
			c-5.06598-2.62927-8.5976-7.81543-8.62982-7.86359c-0.1626-0.24414-0.35449-0.45654-0.56836-0.63574
			C218.6626,217.01221,205.31836,190.65869,234.68408,171.30957z M113.42773,229.45605
			c-5.20703,8.67871-7.9043,11.26172-9.00146,12.02734c-0.44629-1.22949-1.13916-4.75098-0.43457-14.26172
			c1.521-20.53516,12.61621-62.87891,17.54541-80.93945c2.95605,7.18457,7.55908,18.18311,12.55029,29.39697
			C124.97607,201.63232,116.69336,224.01367,113.42773,229.45605z M138.57227,95.45654
			c-14.29932-23.83301-14.25293-49.97363-13.80225-58.354c1.78809,0.28564,4.64502,1.04102,8.61035,2.97656
			c6.80957,3.32422,18.31152,10.87598,34.43701,27.979c8.54541,9.06348,23.2749,33.09912,25.90674,92.2373
			c0.49951,11.23145,0.45459,21.68262,0.06445,30.90967c-14.42285-19.63086-26.91211-42.81543-37.2207-62.45996
			c8.7002-25.74707,15.57275-46.64893,16.28223-48.80908c0.51709-1.57373-0.33984-3.26904-1.91406-3.78613
			c-1.57324-0.51709-3.26904,0.33984-3.78613,1.91406c-0.16553,0.50293-6.30713,19.18311-14.43896,43.31543
			C147.42627,111.28125,142.81201,102.52246,138.57227,95.45654z M140.54443,175.39844
			c4.45996-12.72021,9.07373-26.16357,13.36914-38.81592c10.91016,20.6377,24.07227,44.34668,39.34717,63.8501
			c-1.16064,15.91113-3.32568,26.78613-5.09326,29.54785c-7.78809-0.35645-19.43115-5.68555-29.74805-19.75439
			c-0.93561-1.27576-1.97656-2.91217-3.08936-4.80756c4.07825-13.18738,9.01239-25.5993,12.40869-33.19342
			c0.66602-1.48975,0.01953-3.23828-1.45508-3.93652c-1.47559-0.69824-3.2373-0.08887-3.9668,1.36963
			c-0.10522,0.21045-5.95459,11.9054-12.65967,25.14465C146.71576,188.91473,143.58203,182.17767,140.54443,175.39844z
			 M100.70459,373.06836c-41.84229,49.72559-57.55469,63.94336-63.24463,67.98633c0.57373-3.75488,1.84082-9.87891,4.60547-17.39355
			c4.33301-11.77734,13.30908-29.30957,31.46191-45.94922c17.20508-15.77148,38.60205-30.97559,58.32764-43.82129
			C122.56689,346.27637,112.20361,359.40234,100.70459,373.06836z M291.91943,278.27441
			c3.98242-5.43164,8.0459-7.30469,10.5835-7.30469c0.20898,0,0.40771,0.0127,0.59473,0.03711
			c0.88672,0.11621,1.4541,0.47559,1.68604,1.06836c0.41748,1.06641-0.00977,3.41016-2.58838,6.50391
			c-2.95752,3.54883-7.82422,6.99512-13.2168,9.85352C288.6416,285.2207,289.44922,281.64258,291.91943,278.27441z
			 M348.39893,387.3584c-52.37549,51.3877-76.54932,73.47656-90.67188,77.24316c-4.104,1.09375-9.53809,1.84277-12.1167-0.80273
			c-2.3667-2.42676-2.44922-7.91504-0.23242-15.45215c4.66699-15.86816,31.60498-37.22949,46.78613-47.35059
			c7.3208-4.88086,43.01123-26.09277,89.95605-48.99414C372.8042,362.50293,361.62646,374.38086,348.39893,387.3584z"/>
		<path class="st0" d="M329.58838,166.94189c2.5874-0.52148,15.73438,3.17383,26.42627,6.8916
			c0.32617,0.11328,0.65869,0.16748,0.98535,0.16748c1.2417,0,2.40283-0.77686,2.8335-2.01562
			c0.54443-1.56494-0.2832-3.27441-1.84814-3.81885c-5.57666-1.93945-24.19385-8.18408-29.57373-7.1084
			c-1.62451,0.3252-2.67822,1.90576-2.35352,3.53027C326.38281,166.21338,327.96582,167.2666,329.58838,166.94189z"/>
	</g>
</g>
</svg>
